<?xml version="1.0" encoding="utf-8"?>
<!-- Generator: Adobe Illustrator 14.0.0, SVG Export Plug-In . SVG Version: 6.00 Build 43363)  -->
<!DOCTYPE svg PUBLIC "-//W3C//DTD SVG 1.1//EN" "http://www.w3.org/Graphics/SVG/1.1/DTD/svg11.dtd">
<svg version="1.1" id="Layer_1" xmlns="http://www.w3.org/2000/svg" xmlns:xlink="http://www.w3.org/1999/xlink" x="0px" y="0px"
	 width="36px" height="36px" viewBox="0 0 36 36" enable-background="new 0 0 36 36" xml:space="preserve">
<g>
	<path d="M31.747,18.032l-5.905,3.409v-3.496c0-0.419-0.34-0.759-0.759-0.759c0,0-1.13,0-1.719,0c0.005,0-0.02,0-0.066,0
		c-0.058,0-0.153,0-0.282,0c-1.014,0-4.088,0-7.166,0c-3.513,0-7.027,0-7.471,0c-0.956,0-1.763,0-1.763,0
		c-0.419,0-0.759,0.34-0.759,0.759v12.541c0,0.418,0.34,0.759,0.759,0.759h18.467c0.419,0,0.759-0.341,0.759-0.759V26.99
		l5.905,3.409V18.032z"/>
	<path d="M9.852,4.755c-3.092,0-5.599,2.507-5.599,5.598c0,3.092,2.506,5.599,5.599,5.599c3.091,0,5.598-2.506,5.598-5.599
		C15.449,7.262,12.943,4.755,9.852,4.755z"/>
	<path d="M22.368,4.755c-3.093,0-5.599,2.507-5.599,5.598c0,3.092,2.506,5.599,5.599,5.599c3.091,0,5.598-2.506,5.598-5.599
		C27.966,7.262,25.459,4.755,22.368,4.755z"/>
</g>
</svg>
